# xmcd
#
# Track frame offsets: 
#        150
#        12879
#        25560
#        37708
#        49344
#        61023
#        70865
#        83008
#        94410
#        106250
#        119408
#        132123
#
# Disc length: 1906 seconds
#
# Revision: 0
# Processed by: cddbd v1.5.2PL0 Copyright (c) Steve Scherf et al.
# Submitted via: ExactAudioCopyFreeDBPlugin 1.0
#
DISCID=8c07700c
DTITLE=Henk Wijngaard - Kilometervreters
DYEAR=1979
DGENRE=Country
TTITLE0=Nachtrijders
TTITLE1=Ieder Trukkie Heeft Z'n Eigen Dukkie
TTITLE2=De Weg Is M'n Wereld
TTITLE3=Op De 27 M.C.
TTITLE4=M'n Hobbie En M'n Baan
TTITLE5=M'n Truck
TTITLE6=Kilometervreters
TTITLE7=Mijn Duck En Ik
TTITLE8=Met 't Stuur In Mijn Hand
TTITLE9=Zingende Wielen
TTITLE10=Kunnen We Elkaar Niet Vergeven?
TTITLE11=De Schrik Van Alle Wegen
EXTD=
EXTT0=
EXTT1=
EXTT2=
EXTT3=
EXTT4=
EXTT5=
EXTT6=
EXTT7=
EXTT8=
EXTT9=
EXTT10=
EXTT11=
PLAYORDER=
